<?xml version="1.0" encoding="UTF-8" ?>
<!DOCTYPE svg PUBLIC "-//W3C//DTD SVG 1.1//EN" "http://www.w3.org/Graphics/SVG/1.1/DTD/svg11.dtd">
<svg width="98pt" height="162pt" viewBox="0 0 98 162" version="1.1" xmlns="http://www.w3.org/2000/svg">
<path fill="#ffffff" d=" M 28.80 28.06 C 28.90 24.21 31.42 21.21 33.47 18.18 C 33.93 23.38 39.86 24.86 41.46 29.33 C 41.79 33.23 37.62 36.11 38.01 40.06 C 38.12 41.84 39.77 42.86 40.80 44.11 C 40.59 43.09 40.37 42.08 40.14 41.06 C 40.42 40.48 40.97 39.30 41.24 38.71 C 41.96 40.42 42.97 41.98 44.89 42.43 C 45.06 40.75 45.21 39.07 45.34 37.39 C 46.44 38.98 47.50 40.60 48.49 42.26 C 49.32 40.52 50.52 38.89 50.86 36.98 C 50.16 32.91 47.77 29.14 48.09 24.91 C 48.54 22.51 50.06 20.51 51.15 18.38 C 51.30 20.10 50.94 22.17 52.28 23.53 C 55.29 24.12 58.79 23.68 61.25 25.90 C 63.62 28.19 64.87 31.96 63.24 35.03 C 60.31 40.48 54.76 43.66 49.68 46.81 C 56.66 44.82 65.16 46.10 69.55 52.38 C 74.05 57.91 72.55 67.06 66.24 70.56 C 62.98 68.29 58.10 66.96 57.21 62.55 C 56.14 58.20 60.86 54.02 58.24 49.86 C 55.56 48.36 52.39 48.29 49.41 47.91 C 53.80 53.61 57.10 60.66 56.14 68.02 C 55.53 71.19 52.36 72.88 49.40 73.28 C 52.07 89.41 53.45 105.82 52.50 122.17 C 56.46 112.61 57.19 102.15 60.64 92.44 C 62.32 87.69 65.56 83.81 68.46 79.78 C 68.04 84.23 65.98 88.40 66.09 92.94 C 65.95 103.59 68.93 114.66 64.98 124.98 C 62.88 131.02 57.79 135.29 52.50 138.52 C 49.33 140.24 52.60 146.85 47.79 146.19 C 48.60 135.13 49.87 124.09 49.95 112.99 C 50.37 99.25 48.72 85.53 46.24 72.05 C 43.74 72.97 40.39 74.27 38.42 71.66 C 32.24 64.93 34.92 54.41 40.10 47.91 C 36.97 48.12 33.67 48.27 31.01 50.13 C 33.17 55.67 33.34 62.17 30.08 67.33 C 25.61 69.49 19.56 68.74 16.63 64.46 C 13.63 59.16 14.35 52.36 17.33 47.21 C 18.76 44.50 21.93 42.77 24.99 43.18 C 28.75 43.54 32.46 44.29 36.15 45.09 C 31.72 43.01 27.14 39.88 25.83 34.88 C 26.13 32.31 29.06 30.85 28.80 28.06 Z" />
</svg>
