<?xml version="1.0" encoding="UTF-8" standalone="no"?>
<svg width="62px" height="132px" viewBox="0 0 62 132" version="1.1" xmlns="http://www.w3.org/2000/svg" xmlns:xlink="http://www.w3.org/1999/xlink" xmlns:sketch="http://www.bohemiancoding.com/sketch/ns">
    <!-- Generator: Sketch 3.3.1 (12002) - http://www.bohemiancoding.com/sketch -->
    <title>Shape</title>
    <desc>Created with Sketch.</desc>
    <defs>
        <filter x="-50%" y="-50%" width="200%" height="200%" filterUnits="objectBoundingBox" id="filter-1">
            <feOffset dx="2" dy="2" in="SourceAlpha" result="shadowOffsetOuter1"></feOffset>
            <feGaussianBlur stdDeviation="1" in="shadowOffsetOuter1" result="shadowBlurOuter1"></feGaussianBlur>
            <feColorMatrix values="0 0 0 0 0   0 0 0 0 0   0 0 0 0 0  0 0 0 0.212825521 0" in="shadowBlurOuter1" type="matrix" result="shadowMatrixOuter1"></feColorMatrix>
            <feMerge>
                <feMergeNode in="shadowMatrixOuter1"></feMergeNode>
                <feMergeNode in="SourceGraphic"></feMergeNode>
            </feMerge>
        </filter>
    </defs>
    <g id="Page-1" stroke="none" stroke-width="1" fill="none" fill-rule="evenodd" sketch:type="MSPage">
        <path d="M14.8,10.06 C14.9,6.21 17.42,3.21 19.47,0.18 C19.93,5.38 25.86,6.86 27.46,11.33 C27.79,15.23 23.62,18.11 24.01,22.06 C24.12,23.84 25.77,24.86 26.8,26.11 C26.59,25.09 26.37,24.08 26.14,23.06 C26.42,22.48 26.97,21.3 27.24,20.71 C27.96,22.42 28.97,23.98 30.89,24.43 C31.06,22.75 31.21,21.07 31.34,19.39 C32.44,20.98 33.5,22.6 34.49,24.26 C35.32,22.52 36.52,20.89 36.86,18.98 C36.16,14.91 33.77,11.14 34.09,6.91 C34.54,4.51 36.06,2.51 37.15,0.38 C37.3,2.1 36.94,4.17 38.28,5.53 C41.29,6.12 44.79,5.68 47.25,7.9 C49.62,10.19 50.87,13.96 49.24,17.03 C46.31,22.48 40.76,25.66 35.68,28.81 C42.66,26.82 51.16,28.1 55.55,34.38 C60.05,39.91 58.55,49.06 52.24,52.56 C48.98,50.29 44.1,48.96 43.21,44.55 C42.14,40.2 46.86,36.02 44.24,31.86 C41.56,30.36 38.39,30.29 35.41,29.91 C39.8,35.61 43.1,42.66 42.14,50.02 C41.53,53.19 38.36,54.88 35.4,55.28 C38.07,71.41 39.45,87.82 38.5,104.17 C42.46,94.61 43.19,84.15 46.64,74.44 C48.32,69.69 51.56,65.81 54.46,61.78 C54.04,66.23 51.98,70.4 52.09,74.94 C51.95,85.59 54.93,96.66 50.98,106.98 C48.88,113.02 43.79,117.29 38.5,120.52 C35.33,122.24 38.6,128.85 33.79,128.19 C34.6,117.13 35.87,106.09 35.95,94.99 C36.37,81.25 34.72,67.53 32.24,54.05 C29.74,54.97 26.39,56.27 24.42,53.66 C18.24,46.93 20.92,36.41 26.1,29.91 C22.97,30.12 19.67,30.27 17.01,32.13 C19.17,37.67 19.34,44.17 16.08,49.33 C11.61,51.49 5.56,50.74 2.63,46.46 C-0.37,41.16 0.35,34.36 3.33,29.21 C4.76,26.5 7.93,24.77 10.99,25.18 C14.75,25.54 18.46,26.29 22.15,27.09 C17.72,25.01 13.14,21.88 11.83,16.88 C12.13,14.31 15.06,12.85 14.8,10.06 L14.8,10.06 Z" id="Shape" opacity="0.75" fill="#FFFFFF" filter="url(#filter-1)" sketch:type="MSShapeGroup"></path>
    </g>
</svg>